<svg xmlns="http://www.w3.org/2000/svg" viewBox="0 0 380 290">
  <defs>
    <linearGradient id="bgPipe" x1="0" y1="0" x2="0" y2="1">
      <stop offset="0%" stop-color="#D7DFEC"/>
      <stop offset="100%" stop-color="#8797B0"/>
    </linearGradient>
    <linearGradient id="pipeEnd" x1="0" y1="0" x2="1" y2="1">
      <stop offset="0%" stop-color="#F7FAFC"/>
      <stop offset="100%" stop-color="#8FA0BB"/>
    </linearGradient>
    <linearGradient id="flange" x1="0" y1="0" x2="0" y2="1">
      <stop offset="0%" stop-color="#B8C2D2"/>
      <stop offset="100%" stop-color="#4B5563"/>
    </linearGradient>
    <linearGradient id="valve" x1="0" y1="0" x2="0" y2="1">
      <stop offset="0%" stop-color="#C7D0DD"/>
      <stop offset="52%" stop-color="#8B98AA"/>
      <stop offset="100%" stop-color="#566273"/>
    </linearGradient>
    <linearGradient id="blueSteel" x1="0" y1="0" x2="0" y2="1">
      <stop offset="0%" stop-color="#1B4DB8"/>
      <stop offset="100%" stop-color="#003087"/>
    </linearGradient>
    <linearGradient id="blueSteelTop" x1="0" y1="0" x2="0" y2="1">
      <stop offset="0%" stop-color="#3B82F6"/>
      <stop offset="100%" stop-color="#1E40AF"/>
    </linearGradient>
    <linearGradient id="beam" x1="0" y1="0" x2="0" y2="1">
      <stop offset="0%" stop-color="#6B7280"/>
      <stop offset="100%" stop-color="#374151"/>
    </linearGradient>
    <linearGradient id="beamTop" x1="0" y1="0" x2="0" y2="1">
      <stop offset="0%" stop-color="#9CA3AF"/>
      <stop offset="100%" stop-color="#6B7280"/>
    </linearGradient>
  </defs>

  <rect width="380" height="290" fill="#EEF2F7" rx="12"/>
  <g stroke="#D1D5DB" stroke-width="0.5" opacity="0.62">
    <line x1="0" y1="72" x2="380" y2="72"/>
    <line x1="0" y1="144" x2="380" y2="144"/>
    <line x1="0" y1="216" x2="380" y2="216"/>
    <line x1="95" y1="0" x2="95" y2="290"/>
    <line x1="190" y1="0" x2="190" y2="290"/>
    <line x1="285" y1="0" x2="285" y2="290"/>
  </g>
  <text x="18" y="20" font-family="'Courier New',monospace" font-size="9" fill="#94A3B8" letter-spacing="1">SIDE ELEVATION</text>

  <g id="existing-steel">
    <polygon points="55,230 325,230 317,224 63,224" fill="url(#beamTop)" stroke="#374151" stroke-width="0.5"/>
    <rect x="55" y="230" width="270" height="9" rx="1" fill="url(#beam)" stroke="#374151" stroke-width="0.5"/>
    <polygon points="55,239 325,239 321,243 59,243" fill="#1F2937" stroke="#374151" stroke-width="0.4"/>
    <rect x="182" y="243" width="16" height="13" fill="#374151"/>
    <polygon points="55,256 325,256 321,260 59,260" fill="#1F2937" stroke="#374151" stroke-width="0.4"/>
    <rect x="55" y="260" width="270" height="9" rx="1" fill="url(#beam)" stroke="#374151" stroke-width="0.5"/>
  </g>

  <g id="base-plate">
    <polygon points="104,218 118,212 262,212 276,218" fill="url(#blueSteelTop)" stroke="#001F5C" stroke-width="1"/>
    <rect x="104" y="218" width="172" height="12" rx="1" fill="url(#blueSteel)" stroke="#001F5C" stroke-width="1.3"/>
    <rect x="104" y="230" width="172" height="2" fill="#001F5C" opacity="0.6"/>
    <g fill="#001F5C" opacity="0.75">
      <circle cx="121" cy="224" r="2"/>
      <circle cx="259" cy="224" r="2"/>
    </g>
  </g>

  <g id="pipe-left-right">
    <rect x="46" y="123" width="90" height="28" rx="14" fill="url(#bgPipe)" stroke="#64748B" stroke-width="1.3"/>
    <ellipse cx="46" cy="137" rx="15" ry="14" fill="#A8B5C8" stroke="#64748B" stroke-width="1"/>
    <path d="M58 129 H131" stroke="#FFFFFF" stroke-width="3" opacity="0.35"/>
    <path d="M58 146 H131" stroke="#475569" stroke-width="1" opacity="0.28"/>

    <rect x="244" y="123" width="90" height="28" rx="14" fill="url(#bgPipe)" stroke="#64748B" stroke-width="1.3"/>
    <ellipse cx="334" cy="137" rx="15" ry="14" fill="url(#pipeEnd)" stroke="#64748B" stroke-width="1.4"/>
    <ellipse cx="334" cy="137" rx="9" ry="8" fill="none" stroke="#64748B" stroke-width="0.7" opacity="0.45"/>
    <path d="M249 129 H321" stroke="#FFFFFF" stroke-width="3" opacity="0.35"/>
    <path d="M249 146 H321" stroke="#475569" stroke-width="1" opacity="0.28"/>
  </g>

  <g id="bolted-flanges">
    <rect x="132" y="100" width="15" height="74" rx="2" fill="url(#flange)" stroke="#374151" stroke-width="1.5"/>
    <rect x="154" y="100" width="15" height="74" rx="2" fill="url(#flange)" stroke="#374151" stroke-width="1.5"/>
    <rect x="211" y="100" width="15" height="74" rx="2" fill="url(#flange)" stroke="#374151" stroke-width="1.5"/>
    <rect x="233" y="100" width="15" height="74" rx="2" fill="url(#flange)" stroke="#374151" stroke-width="1.5"/>
    <rect x="147" y="126" width="7" height="22" fill="#717C8D" stroke="#4B5563" stroke-width="0.8"/>
    <rect x="226" y="126" width="7" height="22" fill="#717C8D" stroke="#4B5563" stroke-width="0.8"/>
    <g fill="#EEF2F7" stroke="#374151" stroke-width="0.9">
      <circle cx="139.5" cy="111" r="2.7"/>
      <circle cx="139.5" cy="128" r="2.7"/>
      <circle cx="139.5" cy="146" r="2.7"/>
      <circle cx="139.5" cy="163" r="2.7"/>
      <circle cx="161.5" cy="111" r="2.7"/>
      <circle cx="161.5" cy="128" r="2.7"/>
      <circle cx="161.5" cy="146" r="2.7"/>
      <circle cx="161.5" cy="163" r="2.7"/>
      <circle cx="218.5" cy="111" r="2.7"/>
      <circle cx="218.5" cy="128" r="2.7"/>
      <circle cx="218.5" cy="146" r="2.7"/>
      <circle cx="218.5" cy="163" r="2.7"/>
      <circle cx="240.5" cy="111" r="2.7"/>
      <circle cx="240.5" cy="128" r="2.7"/>
      <circle cx="240.5" cy="146" r="2.7"/>
      <circle cx="240.5" cy="163" r="2.7"/>
    </g>
    <g stroke="#374151" stroke-width="0.9" opacity="0.75">
      <line x1="139.5" y1="111" x2="161.5" y2="111"/>
      <line x1="139.5" y1="128" x2="161.5" y2="128"/>
      <line x1="139.5" y1="146" x2="161.5" y2="146"/>
      <line x1="139.5" y1="163" x2="161.5" y2="163"/>
      <line x1="218.5" y1="111" x2="240.5" y2="111"/>
      <line x1="218.5" y1="128" x2="240.5" y2="128"/>
      <line x1="218.5" y1="146" x2="240.5" y2="146"/>
      <line x1="218.5" y1="163" x2="240.5" y2="163"/>
    </g>
  </g>

  <g id="flanged-valve">
    <path d="M169 117 L184 102 H196 L211 117 V157 L196 172 H184 L169 157 Z"
          fill="url(#valve)" stroke="#374151" stroke-width="1.6"/>
    <rect x="180" y="91" width="20" height="16" rx="2" fill="#7B8796" stroke="#374151" stroke-width="1.2"/>
    <line x1="190" y1="91" x2="190" y2="73" stroke="#4B5563" stroke-width="4" stroke-linecap="round"/>
    <rect x="174" y="66" width="32" height="8" rx="2" fill="#6B7280" stroke="#374151" stroke-width="1"/>
    <path d="M176 128 H204" stroke="#FFFFFF" stroke-width="3" opacity="0.28"/>
    <path d="M174 159 H206" stroke="#374151" stroke-width="1" opacity="0.35"/>
  </g>

  <g id="flange-frame-support">
    <path d="M137 181 H243" stroke="#003087" stroke-width="9" stroke-linecap="square"/>
    <path d="M149 177 L166 162 H214 L231 177" fill="none" stroke="#001F5C" stroke-width="8" stroke-linecap="round" stroke-linejoin="round"/>
    <path d="M149 177 L149 219 M231 177 L231 219" fill="none" stroke="#001F5C" stroke-width="9" stroke-linecap="square"/>
    <path d="M149 177 L166 162 H214 L231 177" fill="none" stroke="url(#blueSteelTop)" stroke-width="3.5" opacity="0.95"/>
    <path d="M149 177 L149 219 M231 177 L231 219" fill="none" stroke="url(#blueSteelTop)" stroke-width="3.5" opacity="0.95"/>
    <rect x="166" y="158" width="48" height="8" rx="2" fill="url(#blueSteel)" stroke="#001F5C" stroke-width="1"/>
    <g fill="#374151" stroke="#9CA3AF" stroke-width="0.5">
      <rect x="145" y="186" width="8" height="5" rx="1"/>
      <rect x="227" y="186" width="8" height="5" rx="1"/>
      <rect x="181" y="158" width="8" height="5" rx="1"/>
      <rect x="192" y="158" width="8" height="5" rx="1"/>
    </g>
  </g>

  <g id="centerlines" stroke="#94A3B8" stroke-width="0.8" stroke-dasharray="6,3">
    <line x1="40" y1="137" x2="340" y2="137"/>
    <line x1="190" y1="62" x2="190" y2="188"/>
  </g>

  <text x="14" y="118" font-family="Arial,sans-serif" font-size="8" fill="#475569" font-weight="700">STEEL PIPE</text>
  <line x1="63" y1="116" x2="94" y2="126" stroke="#475569" stroke-width="0.8"/>

  <text x="14" y="164" font-family="Arial,sans-serif" font-size="7.4" fill="#4B5563" font-weight="700">BOLTED FLANGES</text>
  <line x1="80" y1="162" x2="135" y2="152" stroke="#4B5563" stroke-width="0.8"/>

  <text x="295" y="99" font-family="Arial,sans-serif" font-size="7.4" fill="#4B5563" font-weight="700">FLANGED VALVE</text>
  <line x1="246" y1="111" x2="303" y2="98" stroke="#4B5563" stroke-width="0.8"/>

  <text x="280" y="185" font-family="Arial,sans-serif" font-size="7.2" fill="#003087" font-weight="700">FLANGE FRAME SUPPORT</text>
  <line x1="236" y1="181" x2="289" y2="181" stroke="#003087" stroke-width="0.8"/>

  <text x="292" y="228" font-family="Arial,sans-serif" font-size="7.4" fill="#1B4DB8" font-weight="700">BASE PLATE</text>
  <line x1="276" y1="224" x2="290" y2="224" stroke="#1B4DB8" stroke-width="0.8"/>

  <rect x="72" y="270" width="236" height="14" rx="4" fill="#003087"/>
  <text x="190" y="281" text-anchor="middle"
        font-family="Arial,sans-serif" font-size="9" font-weight="700"
        fill="white" letter-spacing="0.8">FLANGE FRAME SUPPORT (FF_CODE)</text>
</svg>
