<svg xmlns="http://www.w3.org/2000/svg" viewBox="0 0 420 300">
  <defs>
    <radialGradient id="pipe" cx="38%" cy="30%" r="68%">
      <stop offset="0%" stop-color="#eef3f9"/>
      <stop offset="100%" stop-color="#95a7c0"/>
    </radialGradient>
    <linearGradient id="steel" x1="0" y1="0" x2="0" y2="1">
      <stop offset="0%" stop-color="#6b7280"/>
      <stop offset="100%" stop-color="#374151"/>
    </linearGradient>
    <linearGradient id="clamp" x1="0" y1="0" x2="0" y2="1">
      <stop offset="0%" stop-color="#2563eb"/>
      <stop offset="100%" stop-color="#0b2f78"/>
    </linearGradient>
    <linearGradient id="liner" x1="0" y1="0" x2="0" y2="1">
      <stop offset="0%" stop-color="#bbf7d0"/>
      <stop offset="100%" stop-color="#22c55e"/>
    </linearGradient>
    <marker id="arr" markerWidth="8" markerHeight="8" refX="7" refY="4" orient="auto">
      <path d="M0,0 L8,4 L0,8 z" fill="#475569"/>
    </marker>
    <marker id="slideR" markerWidth="8" markerHeight="6" refX="8" refY="3" orient="auto">
      <path d="M0,0 L8,3 L0,6 z" fill="#60a5fa"/>
    </marker>
    <marker id="slideL" markerWidth="8" markerHeight="6" refX="0" refY="3" orient="auto">
      <path d="M8,0 L0,3 L8,6 z" fill="#60a5fa"/>
    </marker>
  </defs>

  <rect width="420" height="300" rx="12" fill="#f3f6fb"/>
  <g opacity="0.55" stroke="#cbd5e1" stroke-width="0.7">
    <line x1="0" y1="75" x2="420" y2="75"/>
    <line x1="0" y1="150" x2="420" y2="150"/>
    <line x1="0" y1="225" x2="420" y2="225"/>
    <line x1="105" y1="0" x2="105" y2="300"/>
    <line x1="210" y1="0" x2="210" y2="300"/>
    <line x1="315" y1="0" x2="315" y2="300"/>
  </g>
  <text x="18" y="20" fill="#94a3b8" font-family="'Courier New', monospace" font-size="10" letter-spacing="1.4">ENGINEERING ILLUSTRATION</text>
  <text x="18" y="38" fill="#0b2f78" font-family="Arial, sans-serif" font-size="20" font-weight="700">SC06</text>
  <text x="72" y="38" fill="#64748b" font-family="Arial, sans-serif" font-size="11">SLOPING CLAMP WITH PTFE LINER</text>

  <rect x="82" y="228" width="256" height="10" rx="2" fill="url(#steel)"/>
  <rect x="201" y="238" width="18" height="18" fill="#374151"/>
  <rect x="82" y="256" width="256" height="10" rx="2" fill="url(#steel)"/>

  <rect x="128" y="214" width="156" height="12" rx="2" fill="url(#clamp)" stroke="#08245a" stroke-width="1.5"/>
  <path d="M146,214 L164,176 L183,176 L168,214 Z" fill="url(#clamp)" stroke="#08245a" stroke-width="1.5"/>
  <path d="M244,214 L232,176 L251,176 L263,214 Z" fill="url(#clamp)" stroke="#08245a" stroke-width="1.5"/>
  <path d="M166,152 Q208,132 250,146 L258,154 Q210,144 158,160 Z" fill="url(#clamp)" stroke="#08245a" stroke-width="1.5"/>

  <circle cx="208" cy="108" r="57" fill="url(#pipe)" stroke="#64748b" stroke-width="2.4"/>
  <path d="M170,152 Q208,136 246,147 L250,152 Q208,146 166,157 Z" fill="url(#liner)" stroke="#15803d" stroke-width="1.1"/>
  <path d="M160,214 L160,88 Q160,74 176,74 H238 Q252,74 256,88 L256,214" fill="none" stroke="#1e3a8a" stroke-width="5.8" stroke-linecap="round"/>
  <rect x="153" y="68" width="14" height="10" rx="2" fill="#1e3a8a"/>
  <rect x="249" y="68" width="14" height="10" rx="2" fill="#1e3a8a"/>
  <rect x="152" y="206" width="16" height="10" rx="2" fill="#334155"/>
  <rect x="248" y="206" width="16" height="10" rx="2" fill="#334155"/>

  <line x1="160" y1="82" x2="252" y2="134" stroke="#60a5fa" stroke-width="1.4" stroke-dasharray="5 4"/>
  <line x1="184" y1="232" x2="154" y2="232" stroke="#60a5fa" stroke-width="1.6" marker-end="url(#slideL)"/>
  <line x1="236" y1="232" x2="266" y2="232" stroke="#60a5fa" stroke-width="1.6" marker-end="url(#slideR)"/>
  <text x="210" y="246" text-anchor="middle" fill="#60a5fa" font-family="Arial, sans-serif" font-size="8.5" font-weight="700">SLIDING</text>

  <text x="322" y="102" fill="#475569" font-family="Arial, sans-serif" font-size="9" font-weight="700">PIPE</text>
  <line x1="262" y1="100" x2="318" y2="102" stroke="#475569" stroke-width="1" marker-end="url(#arr)"/>
  <text x="322" y="150" fill="#16a34a" font-family="Arial, sans-serif" font-size="9" font-weight="700">PTFE LINER</text>
  <line x1="258" y1="152" x2="318" y2="150" stroke="#475569" stroke-width="1" marker-end="url(#arr)"/>
  <text x="322" y="206" fill="#0b2f78" font-family="Arial, sans-serif" font-size="9" font-weight="700">SLOPING CLAMP</text>
  <line x1="280" y1="220" x2="318" y2="206" stroke="#475569" stroke-width="1" marker-end="url(#arr)"/>

  <rect x="82" y="272" width="256" height="18" rx="4" fill="#0b2f78"/>
  <text x="210" y="285" text-anchor="middle" fill="#ffffff" font-family="Arial, sans-serif" font-size="11" font-weight="700" letter-spacing="1.2">LOW FRICTION SLOPING CLAMP</text>
</svg>
