<svg xmlns="http://www.w3.org/2000/svg" viewBox="0 0 420 300">
  <defs>
    <radialGradient id="pipe" cx="38%" cy="30%" r="68%">
      <stop offset="0%" stop-color="#eef3f9"/>
      <stop offset="100%" stop-color="#95a7c0"/>
    </radialGradient>
    <linearGradient id="steel" x1="0" y1="0" x2="0" y2="1">
      <stop offset="0%" stop-color="#6b7280"/>
      <stop offset="100%" stop-color="#374151"/>
    </linearGradient>
    <linearGradient id="shoe" x1="0" y1="0" x2="0" y2="1">
      <stop offset="0%" stop-color="#2563eb"/>
      <stop offset="100%" stop-color="#0b2f78"/>
    </linearGradient>
    <marker id="arr" markerWidth="8" markerHeight="8" refX="7" refY="4" orient="auto">
      <path d="M0,0 L8,4 L0,8 z" fill="#475569"/>
    </marker>
    <marker id="slideR" markerWidth="8" markerHeight="6" refX="8" refY="3" orient="auto">
      <path d="M0,0 L8,3 L0,6 z" fill="#60a5fa"/>
    </marker>
  </defs>

  <rect width="420" height="300" rx="12" fill="#f3f6fb"/>
  <g opacity="0.55" stroke="#cbd5e1" stroke-width="0.7">
    <line x1="0" y1="75" x2="420" y2="75"/>
    <line x1="0" y1="150" x2="420" y2="150"/>
    <line x1="0" y1="225" x2="420" y2="225"/>
    <line x1="105" y1="0" x2="105" y2="300"/>
    <line x1="210" y1="0" x2="210" y2="300"/>
    <line x1="315" y1="0" x2="315" y2="300"/>
  </g>
  <text x="18" y="20" fill="#94a3b8" font-family="'Courier New', monospace" font-size="10" letter-spacing="1.4">ENGINEERING ILLUSTRATION</text>
  <text x="18" y="38" fill="#0b2f78" font-family="Arial, sans-serif" font-size="20" font-weight="700">SH04</text>
  <text x="72" y="38" fill="#64748b" font-family="Arial, sans-serif" font-size="11">SLOPING SHOE FOR SMALL PIPE</text>

  <rect x="82" y="228" width="256" height="10" rx="2" fill="url(#steel)"/>
  <rect x="201" y="238" width="18" height="18" fill="#374151"/>
  <rect x="82" y="256" width="256" height="10" rx="2" fill="url(#steel)"/>

  <rect x="130" y="214" width="152" height="12" rx="2" fill="url(#shoe)" stroke="#08245a" stroke-width="1.5"/>
  <path d="M148,214 L166,177 L184,177 L170,214 Z" fill="url(#shoe)" stroke="#08245a" stroke-width="1.5"/>
  <path d="M246,214 L234,177 L252,177 L264,214 Z" fill="url(#shoe)" stroke="#08245a" stroke-width="1.5"/>
  <path d="M165,152 Q210,132 252,146 L260,154 Q211,144 156,160 Z" fill="url(#shoe)" stroke="#08245a" stroke-width="1.5"/>

  <circle cx="208" cy="106" r="57" fill="url(#pipe)" stroke="#64748b" stroke-width="2.4"/>
  <ellipse cx="192" cy="90" rx="16" ry="10" fill="#ffffff" opacity="0.38"/>
  <line x1="162" y1="80" x2="252" y2="132" stroke="#60a5fa" stroke-width="1.4" stroke-dasharray="5 4"/>
  <path d="M155,93 A28 28 0 0 1 176,79" fill="none" stroke="#60a5fa" stroke-width="1.2"/>
  <text x="136" y="94" fill="#60a5fa" font-family="Arial, sans-serif" font-size="8.5" font-weight="700">SLOPE</text>

  <line x1="228" y1="232" x2="252" y2="232" stroke="#60a5fa" stroke-width="1.6" marker-end="url(#slideR)"/>
  <text x="210" y="246" text-anchor="middle" fill="#60a5fa" font-family="Arial, sans-serif" font-size="8.5" font-weight="700">SLIDING</text>

  <text x="320" y="102" fill="#475569" font-family="Arial, sans-serif" font-size="9" font-weight="700">PIPE</text>
  <line x1="262" y1="100" x2="316" y2="102" stroke="#475569" stroke-width="1" marker-end="url(#arr)"/>
  <text x="320" y="150" fill="#0b2f78" font-family="Arial, sans-serif" font-size="9" font-weight="700">ANGLED SHOE</text>
  <line x1="262" y1="154" x2="316" y2="150" stroke="#475569" stroke-width="1" marker-end="url(#arr)"/>
  <text x="320" y="210" fill="#0b2f78" font-family="Arial, sans-serif" font-size="9" font-weight="700">SOLE PLATE</text>
  <line x1="282" y1="220" x2="316" y2="210" stroke="#475569" stroke-width="1" marker-end="url(#arr)"/>

  <rect x="82" y="272" width="256" height="18" rx="4" fill="#0b2f78"/>
  <text x="210" y="285" text-anchor="middle" fill="#ffffff" font-family="Arial, sans-serif" font-size="11" font-weight="700" letter-spacing="1.2">SLOPING SHOE FOR 1.5 TO 4 IN</text>
</svg>
